<mxfile host="65bd71144e">
    <diagram id="FbJexrYLCcvd24ga0wMY" name="Page-1">
        <mxGraphModel dx="977" dy="568" grid="1" gridSize="10" guides="1" tooltips="1" connect="1" arrows="1" fold="1" page="1" pageScale="1" pageWidth="1169" pageHeight="1654" math="0" shadow="0">
            <root>
                <mxCell id="0"/>
                <mxCell id="1" parent="0"/>
                <mxCell id="5" value="Diagramacion N-TIER del Examen 2" style="swimlane;childLayout=stackLayout;resizeParent=1;resizeParentMax=0;horizontal=1;startSize=20;horizontalStack=0;html=1;" vertex="1" parent="1">
                    <mxGeometry x="250" y="320" width="480" height="380" as="geometry"/>
                </mxCell>
                <mxCell id="6" value="User Interface" style="swimlane;startSize=20;horizontal=0;html=1;" vertex="1" parent="5">
                    <mxGeometry y="20" width="480" height="120" as="geometry"/>
                </mxCell>
                <mxCell id="7" value="Business" style="swimlane;startSize=20;horizontal=0;html=1;" vertex="1" parent="5">
                    <mxGeometry y="140" width="480" height="120" as="geometry"/>
                </mxCell>
                <mxCell id="8" value="Data&amp;nbsp;" style="swimlane;startSize=20;horizontal=0;html=1;" vertex="1" parent="5">
                    <mxGeometry y="260" width="480" height="120" as="geometry"/>
                </mxCell>
                <mxCell id="13" value="Data Sources" style="swimlane;startSize=20;horizontal=0;html=1;" vertex="1" parent="1">
                    <mxGeometry x="250" y="700" width="480" height="120" as="geometry"/>
                </mxCell>
                <mxCell id="17" value="Framework" style="swimlane;" vertex="1" parent="1">
                    <mxGeometry x="780" y="330" width="200" height="320" as="geometry"/>
                </mxCell>
            </root>
        </mxGraphModel>
    </diagram>
</mxfile>